# Blender v2.78 (sub 0) OBJ File: 'домики.blend'
# www.blender.org
mtllib Мелкий.mtl
o Cube.003
v -0.137606 6.520124 4.625299
v -0.257220 6.520124 4.625299
v -0.137606 6.520124 4.738554
v -0.257220 6.520124 4.738554
v -0.331596 5.402615 5.276223
v -0.331596 6.131692 5.276223
v -0.331596 5.402615 4.576223
v -0.331596 6.131692 4.576223
v 0.368404 5.402615 5.276223
v 0.368404 6.131692 5.276223
v 0.368404 5.402615 4.576223
v 0.368404 6.131692 4.576223
v -0.404605 5.977335 4.481298
v -0.404605 6.492870 4.996833
v -0.404605 6.053177 4.405456
v -0.404605 6.568712 4.920991
v 0.441413 5.977335 4.481298
v 0.441413 6.492870 4.996833
v 0.441413 6.053177 4.405456
v 0.441413 6.568712 4.920991
v -0.404605 6.053177 5.437285
v -0.404605 6.568712 4.921750
v -0.404605 5.977335 5.361443
v -0.404605 6.492870 4.845908
v 0.441413 6.053177 5.437285
v 0.441413 6.568712 4.921750
v 0.441413 5.977335 5.361443
v 0.441413 6.492870 4.845908
v -0.331596 5.402615 4.926223
v -0.331596 6.484668 4.926223
v 0.368404 5.402615 4.926223
v 0.368404 6.484668 4.926223
v -0.370452 6.015241 4.507933
v -0.370452 6.015241 5.348301
v -0.370452 6.122498 4.507933
v -0.370452 6.122498 5.348301
v 0.407260 6.015241 4.507933
v 0.407260 6.015241 5.348301
v 0.407260 6.122498 4.507933
v 0.407260 6.122498 5.348301
v -0.371464 5.416293 4.521989
v -0.371464 5.416293 5.334245
v -0.371464 5.523550 4.521989
v -0.371464 5.523550 5.334245
v 0.408272 5.416293 4.521989
v 0.408272 5.416293 5.334245
v 0.408272 5.523550 4.521989
v 0.408272 5.523550 5.334245
v 0.276548 5.509146 4.833221
v 0.276548 5.509146 5.023013
v 0.276548 5.777024 4.833221
v 0.276548 5.777024 5.023013
v 0.389803 5.509146 4.833221
v 0.389803 5.509146 5.023013
v 0.389803 5.777024 4.833221
v 0.389803 5.777024 5.023013
v -0.079090 5.638842 5.293234
v 0.110702 5.638842 5.293234
v -0.079090 5.846858 5.293234
v 0.110702 5.846858 5.293234
v -0.079090 5.638842 5.179979
v 0.110702 5.638842 5.179979
v -0.079090 5.846858 5.179979
v 0.110702 5.846858 5.179979
v -0.079090 5.638842 4.670417
v 0.110702 5.638842 4.670417
v -0.079090 5.846858 4.670417
v 0.110702 5.846858 4.670417
v -0.079090 5.638842 4.557161
v 0.110702 5.638842 4.557161
v -0.079090 5.846858 4.557161
v 0.110702 5.846858 4.557161
v -0.257220 6.283287 4.738761
v -0.137606 6.283287 4.738761
v -0.257220 6.491302 4.738761
v -0.137606 6.491302 4.738761
v -0.257220 6.238261 4.625506
v -0.137606 6.238261 4.625506
v -0.257220 6.491302 4.625506
v -0.137606 6.491302 4.625506
v -0.286285 6.456051 4.771132
v -0.108541 6.456051 4.771132
v -0.286285 6.553613 4.771132
v -0.108541 6.553613 4.771132
v -0.286285 6.456051 4.593136
v -0.108541 6.456051 4.593136
v -0.286285 6.553613 4.593136
v -0.108541 6.553613 4.593136
v -0.137606 6.553613 4.625299
v -0.137606 6.553613 4.738554
v -0.257221 6.553613 4.643532
v -0.257220 6.553613 4.738554
v -0.257220 6.553613 4.625299
vt 0.5546 0.2397
vt 0.5546 0.2343
vt 0.5931 0.2343
vt 0.5931 0.2397
vt 0.9023 0.0754
vt 0.9023 0.0390
vt 0.9408 0.0390
vt 0.9408 0.0754
vt 0.8996 0.8240
vt 0.7255 0.8240
vt 0.7823 0.7113
vt 0.8996 0.7113
vt 0.2723 0.8287
vt 0.2723 0.7113
vt 0.4977 0.7113
vt 0.4977 0.8287
vt 0.8381 0.8252
vt 0.8381 0.9994
vt 0.7255 0.9426
vt 0.7255 0.8252
vt 0.7243 0.7113
vt 0.7243 0.8287
vt 0.4989 0.8287
vt 0.4989 0.7113
vt 0.7884 0.2260
vt 0.7884 0.0006
vt 0.9011 0.0006
vt 0.9011 0.2260
vt 0.2260 0.7775
vt 0.0006 0.7775
vt 0.0006 0.6513
vt 0.2260 0.6513
vt 0.4579 0.8802
vt 0.2723 0.8802
vt 0.2887 0.8584
vt 0.4743 0.8584
vt 0.5149 0.1862
vt 0.5149 0.0006
vt 0.7872 0.0006
vt 0.7872 0.1862
vt 0.6774 0.9033
vt 0.4919 0.9033
vt 0.4755 0.8814
vt 0.6611 0.8814
vt 0.5447 0.5246
vt 0.5447 0.7101
vt 0.2723 0.7101
vt 0.2723 0.5246
vt 0.2723 0.8299
vt 0.5447 0.8299
vt 0.5447 0.8572
vt 0.2723 0.8572
vt 0.8074 0.2712
vt 0.5350 0.2712
vt 0.5350 0.2439
vt 0.8074 0.2439
vt 0.2723 0.8814
vt 0.4579 0.8814
vt 0.4743 0.9033
vt 0.2887 0.9033
vt 0.5350 0.4579
vt 0.5350 0.2723
vt 0.8074 0.2723
vt 0.8074 0.4579
vt 0.4919 0.8584
vt 0.6774 0.8584
vt 0.6611 0.8802
vt 0.4755 0.8802
vt 0.8183 0.5246
vt 0.8183 0.7101
vt 0.5459 0.7101
vt 0.5459 0.5246
vt 0.5350 0.4591
vt 0.8074 0.4591
vt 0.8074 0.4864
vt 0.5350 0.4864
vt 0.7872 0.2147
vt 0.5149 0.2147
vt 0.5149 0.1874
vt 0.7872 0.1874
vt 0.2260 0.6501
vt 0.0006 0.6501
vt 0.0006 0.5239
vt 0.2260 0.5239
vt 0.8086 0.4977
vt 0.8086 0.2723
vt 0.9213 0.2723
vt 0.9213 0.4977
vt 0.9322 0.5246
vt 0.9322 0.6419
vt 0.8195 0.6988
vt 0.8195 0.5246
vt 0.0006 0.7787
vt 0.1180 0.7787
vt 0.1748 0.8914
vt 0.0006 0.8914
vt 0.5227 0.2701
vt 0.2522 0.2701
vt 0.2522 0.2528
vt 0.5227 0.2528
vt 0.2510 0.0006
vt 0.2510 0.2712
vt 0.0006 0.2712
vt 0.0006 0.0006
vt 0.7854 0.2331
vt 0.5149 0.2331
vt 0.5149 0.2159
vt 0.7854 0.2159
vt 0.2712 0.5227
vt 0.0006 0.5227
vt 0.0006 0.2723
vt 0.2712 0.2723
vt 0.2723 0.9229
vt 0.5227 0.9229
vt 0.5227 0.9402
vt 0.2723 0.9402
vt 0.2510 0.9283
vt 0.0006 0.9283
vt 0.0006 0.9111
vt 0.2510 0.9111
vt 0.7965 0.5049
vt 0.5350 0.5049
vt 0.5350 0.4876
vt 0.7965 0.4876
vt 0.5137 0.2516
vt 0.2522 0.2516
vt 0.2522 0.0006
vt 0.5137 0.0006
vt 0.7965 0.5233
vt 0.5350 0.5233
vt 0.5350 0.5061
vt 0.7965 0.5061
vt 0.5339 0.5234
vt 0.2723 0.5234
vt 0.2723 0.2723
vt 0.5339 0.2723
vt 0.2723 0.9045
vt 0.5234 0.9045
vt 0.5234 0.9217
vt 0.2723 0.9217
vt 0.2516 0.9099
vt 0.0006 0.9099
vt 0.0006 0.8926
vt 0.2516 0.8926
vt 0.2371 0.8803
vt 0.1760 0.8803
vt 0.1760 0.8371
vt 0.2371 0.8371
vt 0.2636 0.6485
vt 0.2636 0.7096
vt 0.2272 0.7096
vt 0.2272 0.6485
vt 0.8697 0.2712
vt 0.8086 0.2712
vt 0.8086 0.2280
vt 0.8697 0.2280
vt 0.5857 0.9409
vt 0.5246 0.9409
vt 0.5246 0.9045
vt 0.5857 0.9045
vt 0.2709 0.8218
vt 0.2345 0.8218
vt 0.2345 0.7787
vt 0.2709 0.7787
vt 0.9343 0.8683
vt 0.8978 0.8683
vt 0.8978 0.8252
vt 0.9343 0.8252
vt 0.6492 0.9045
vt 0.7103 0.9045
vt 0.7103 0.9380
vt 0.6492 0.9380
vt 0.8709 0.2280
vt 0.9320 0.2280
vt 0.9320 0.2645
vt 0.8709 0.2645
vt 0.6908 0.8910
vt 0.6908 0.8299
vt 0.7243 0.8299
vt 0.7243 0.8910
vt 0.2272 0.6473
vt 0.2272 0.5862
vt 0.2636 0.5862
vt 0.2636 0.6473
vt 0.9225 0.3088
vt 0.9225 0.2723
vt 0.9560 0.2723
vt 0.9560 0.3088
vt 0.8758 0.9548
vt 0.8393 0.9548
vt 0.8393 0.9213
vt 0.8758 0.9213
vt 0.5869 0.9045
vt 0.6480 0.9045
vt 0.6480 0.9380
vt 0.5869 0.9380
vt 0.8393 0.8836
vt 0.9004 0.8836
vt 0.9004 0.9201
vt 0.8393 0.9201
vt 0.2272 0.7719
vt 0.2272 0.7108
vt 0.2606 0.7108
vt 0.2606 0.7719
vt 0.2272 0.5850
vt 0.2272 0.5239
vt 0.2636 0.5239
vt 0.2636 0.5850
vt 0.9023 0.1855
vt 0.9023 0.1490
vt 0.9358 0.1490
vt 0.9358 0.1855
vt 0.9388 0.2201
vt 0.9023 0.2201
vt 0.9023 0.1866
vt 0.9388 0.1866
vt 0.9023 0.1143
vt 0.9408 0.1143
vt 0.9408 0.1478
vt 0.9023 0.1478
vt 0.9023 0.0766
vt 0.9408 0.0766
vt 0.9408 0.1131
vt 0.9023 0.1131
vt 0.9394 0.7521
vt 0.9008 0.7521
vt 0.9008 0.7113
vt 0.9394 0.7113
vt 0.9023 0.0006
vt 0.9408 0.0006
vt 0.9408 0.0378
vt 0.9023 0.0378
vt 0.9381 0.9244
vt 0.9016 0.9244
vt 0.9016 0.8836
vt 0.9381 0.8909
vt 0.9373 0.7940
vt 0.9008 0.7940
vt 0.9008 0.7605
vt 0.9373 0.7533
vt 0.0006 0.9295
vt 0.0578 0.9295
vt 0.0578 0.9452
vt 0.0006 0.9452
vt 0.1760 0.8359
vt 0.1760 0.7787
vt 0.2333 0.7787
vt 0.2229 0.7881
vt 0.1865 0.7881
vt 0.1865 0.8266
vt 0.2171 0.8266
vt 0.2333 0.8359
vt 0.8563 0.5061
vt 0.9135 0.5061
vt 0.9135 0.5218
vt 0.8563 0.5218
vt 0.8967 0.8252
vt 0.8967 0.8824
vt 0.8393 0.8824
vt 0.8393 0.8252
vt 0.7977 0.5061
vt 0.8551 0.5061
vt 0.8551 0.5218
vt 0.7977 0.5218
vt 0.6616 0.8456
vt 0.6043 0.8456
vt 0.6043 0.8299
vt 0.6616 0.8299
vt 0.5459 0.8461
vt 0.5553 0.8299
vt 0.5553 0.8358
vt 0.5938 0.8358
vt 0.6031 0.8461
vt 0.6320 0.2397
vt 0.6320 0.2343
vt 0.6684 0.2343
vt 0.6684 0.2397
vt 0.6625 0.2397
vt 0.6308 0.2343
vt 0.6308 0.2397
vt 0.5943 0.2397
vt 0.5943 0.2343
vt 0.5149 0.2397
vt 0.5149 0.2343
vt 0.5534 0.2343
vt 0.5534 0.2397
vn 0.0000 0.0000 -1.0000
vn 0.0000 1.0000 0.0000
vn -1.0000 0.0000 0.0000
vn 1.0000 0.0000 0.0000
vn 0.0000 0.0000 1.0000
vn 0.0000 -1.0000 0.0000
vn 0.0000 0.7041 0.7101
vn 0.0000 0.7071 -0.7071
vn 0.0000 -0.7071 0.7071
vn 0.0000 -0.7071 -0.7071
vn 0.0000 0.7071 0.7071
vn 0.0000 0.7041 -0.7101
vn 0.0000 -0.9293 0.3694
usemtl Material.008
s off
f 4/1/1 92/2/1 90/3/1 3/4/1
f 2/5/2 4/6/2 3/7/2 1/8/2
f 29/9/3 30/10/3 8/11/3 7/12/3
f 7/13/1 8/14/1 12/15/1 11/16/1
f 31/17/4 32/18/4 10/19/4 9/20/4
f 9/21/5 10/22/5 6/23/5 5/24/5
f 29/25/6 31/26/6 9/27/6 5/28/6
f 32/29/7 30/30/7 6/31/7 10/32/7
f 13/33/3 14/34/3 16/35/3 15/36/3
f 15/37/8 16/38/8 20/39/8 19/40/8
f 19/41/4 20/42/4 18/43/4 17/44/4
f 17/45/9 18/46/9 14/47/9 13/48/9
f 15/49/10 19/50/10 17/51/10 13/52/10
f 20/53/11 16/54/11 14/55/11 18/56/11
f 21/57/3 22/58/3 24/59/3 23/60/3
f 23/61/10 24/62/10 28/63/10 27/64/10
f 27/65/4 28/66/4 26/67/4 25/68/4
f 25/69/11 26/70/11 22/71/11 21/72/11
f 23/73/9 27/74/9 25/75/9 21/76/9
f 28/77/8 24/78/8 22/79/8 26/80/8
f 12/81/12 8/82/12 30/83/12 32/84/12
f 7/85/6 11/86/6 31/87/6 29/88/6
f 11/89/4 12/90/4 32/91/4 31/92/4
f 5/93/3 6/94/3 30/95/3 29/96/3
f 33/97/3 34/98/3 36/99/3 35/100/3
f 35/101/2 36/102/2 40/103/2 39/104/2
f 39/105/4 40/106/4 38/107/4 37/108/4
f 37/109/6 38/110/6 34/111/6 33/112/6
f 35/113/1 39/114/1 37/115/1 33/116/1
f 40/117/5 36/118/5 34/119/5 38/120/5
f 41/121/3 42/122/3 44/123/3 43/124/3
f 43/125/2 44/126/2 48/127/2 47/128/2
f 47/129/4 48/130/4 46/131/4 45/132/4
f 45/133/6 46/134/6 42/135/6 41/136/6
f 43/137/1 47/138/1 45/139/1 41/140/1
f 48/141/5 44/142/5 42/143/5 46/144/5
f 49/145/3 50/146/3 52/147/3 51/148/3
f 51/149/2 52/150/2 56/151/2 55/152/2
f 55/153/4 56/154/4 54/155/4 53/156/4
f 53/157/6 54/158/6 50/159/6 49/160/6
f 51/161/1 55/162/1 53/163/1 49/164/1
f 56/165/5 52/166/5 50/167/5 54/168/5
f 57/169/5 58/170/5 60/171/5 59/172/5
f 59/173/2 60/174/2 64/175/2 63/176/2
f 63/177/1 64/178/1 62/179/1 61/180/1
f 61/181/6 62/182/6 58/183/6 57/184/6
f 59/185/3 63/186/3 61/187/3 57/188/3
f 64/189/4 60/190/4 58/191/4 62/192/4
f 65/193/5 66/194/5 68/195/5 67/196/5
f 67/197/2 68/198/2 72/199/2 71/200/2
f 71/201/1 72/202/1 70/203/1 69/204/1
f 69/205/6 70/206/6 66/207/6 65/208/6
f 67/209/3 71/210/3 69/211/3 65/212/3
f 72/213/4 68/214/4 66/215/4 70/216/4
f 73/217/5 74/218/5 76/219/5 75/220/5
f 75/221/2 76/222/2 80/223/2 79/224/2
f 79/225/1 80/226/1 78/227/1 77/228/1
f 77/229/13 78/230/13 74/231/13 73/232/13
f 75/233/3 79/234/3 77/235/3 73/236/3
f 80/237/4 76/238/4 74/239/4 78/240/4
f 81/241/5 82/242/5 84/243/5 83/244/5
f 83/245/2 84/246/2 88/247/2 89/248/2 90/249/2 92/250/2 91/251/2 87/252/2
f 87/253/1 88/254/1 86/255/1 85/256/1
f 85/257/6 86/258/6 82/259/6 81/260/6
f 83/261/3 87/262/3 85/263/3 81/264/3
f 88/265/4 84/266/4 82/267/4 86/268/4
f 87/269/2 91/270/2 93/271/2 89/272/2 88/273/2
f 92/274/4 4/275/4 2/276/4 93/277/4 91/278/4
f 89/279/3 1/280/3 3/281/3 90/282/3
f 93/283/5 2/284/5 1/285/5 89/286/5
